<?xml version="1.0" standalone="no"?><!DOCTYPE svg PUBLIC "-//W3C//DTD SVG 1.1//EN" "http://www.w3.org/Graphics/SVG/1.1/DTD/svg11.dtd"><svg t="1587910742913" class="icon" viewBox="0 0 1024 1024" version="1.1" xmlns="http://www.w3.org/2000/svg" p-id="3313" xmlns:xlink="http://www.w3.org/1999/xlink" width="200" height="200"><defs><style type="text/css"></style></defs><path d="M796.16 174.08H576c-31.232 0-61.44 10.752-79.36 28.672L134.656 564.224c-23.04 23.04-23.04 53.76 0 76.8l238.08 238.08c11.264 11.264 25.6 17.408 39.936 17.408s28.672-6.144 39.936-17.408l370.688-370.688c15.36-15.36 24.576-38.4 24.576-61.952v-220.16c0-35.84-16.384-52.224-51.712-52.224zM675.328 390.656c0 25.088-19.968 45.056-45.056 45.056s-45.056-19.968-45.056-45.056 19.968-45.056 45.056-45.056 45.056 19.968 45.056 45.056z" p-id="3314"></path></svg>